<svg width="73px" height="56px" viewBox="0 0 73 56" version="1.1" xmlns="http://www.w3.org/2000/svg" xmlns:xlink="http://www.w3.org/1999/xlink">
    <g id="Page-1" stroke="none" stroke-width="1" fill="none" fill-rule="evenodd">
        <g id="logo-horizontal" transform="translate(0.000000, 0.000602)" fill-rule="nonzero">
            <g id="Group-5">
                <polyline id="Fill-1" fill="#B8252B" points="60.107871 51.9300645 12.1929462 51.9300645 12.1929462 45.1052903 8.12301075 45.1052903 8.12301075 55.9993978 60.107871 55.9993978 60.107871 51.9300645"></polyline>
                <polyline id="Fill-2" fill="#002E6D" points="8.19346237 10.8941075 12.2633978 10.8941075 12.2633978 4.06933333 60.1548387 4.06933333 60.1548387 10.8941075 64.2247742 10.8941075 64.2247742 -5.01009824e-16 8.19346237 -5.01009824e-16 8.19346237 10.8941075"></polyline>
                <path d="M4.91475269,33.0219354 C4.94907527,34.4387956 5.63191398,37.1334193 10.1022796,37.1334193 C12.5253333,37.1334193 15.2217634,36.5306666 15.2217634,33.8354408 C15.2217634,31.8501505 13.3791828,31.3196559 10.7857204,30.6813763 L8.15793548,30.0418924 C4.1975914,29.0850752 0.375741935,28.164387 0.375741935,22.5625806 C0.375741935,19.7270537 1.8431828,14.7304086 9.7951828,14.7304086 C17.3033978,14.7304086 19.3169892,19.8330322 19.351914,22.9527741 L14.4371613,22.9527741 C14.299871,21.8189247 13.8910108,19.1249032 9.41944086,19.1249032 C7.47389247,19.1249032 5.1544086,19.8697634 5.1544086,22.1729892 C5.1544086,24.1582795 6.7236129,24.5846021 7.74726882,24.8314838 L13.72,26.3573333 C17.0649462,27.2075698 20.1365161,28.6244301 20.1365161,33.1965591 C20.1365161,40.8547096 12.6270968,41.5279139 10.4780215,41.5279139 C1.53668817,41.5279139 0,36.176 0,33.0219354 L4.91475269,33.0219354" id="Fill-4" fill="#002E6D"></path>
                <polyline id="Fill-8" fill="#002E6D" points="64.1537204 51.9059784 60.107871 55.9993978 60.107871 40.9257634 64.1537204 40.9257634 64.1537204 51.9059784"></polyline>
                <polyline id="Fill-1" fill="#B8252B" points="60.107871 51.9300645 12.1929462 51.9300645 12.1929462 45.1052903 8.12301075 45.1052903 8.12301075 55.9993978 60.107871 55.9993978 60.107871 51.9300645"></polyline>
                <g id="Group" fill="#002E6D">
                    <polyline id="Fill-2" points="8.19346237 10.8941075 12.2633978 10.8941075 12.2633978 4.06933333 60.1548387 4.06933333 60.1548387 10.8941075 64.2247742 10.8941075 64.2247742 -5.01009824e-16 8.19346237 -5.01009824e-16 8.19346237 10.8941075"></polyline>
                    <path d="M4.91475269,33.0219354 C4.94907527,34.4387956 5.63191398,37.1334193 10.1022796,37.1334193 C12.5253333,37.1334193 15.2217634,36.5306666 15.2217634,33.8354408 C15.2217634,31.8501505 13.3791828,31.3196559 10.7857204,30.6813763 L8.15793548,30.0418924 C4.1975914,29.0850752 0.375741935,28.164387 0.375741935,22.5625806 C0.375741935,19.7270537 1.8431828,14.7304086 9.7951828,14.7304086 C17.3033978,14.7304086 19.3169892,19.8330322 19.351914,22.9527741 L14.4371613,22.9527741 C14.299871,21.8189247 13.8910108,19.1249032 9.41944086,19.1249032 C7.47389247,19.1249032 5.1544086,19.8697634 5.1544086,22.1729892 C5.1544086,24.1582795 6.7236129,24.5846021 7.74726882,24.8314838 L13.72,26.3573333 C17.0649462,27.2075698 20.1365161,28.6244301 20.1365161,33.1965591 C20.1365161,40.8547096 12.6270968,41.5279139 10.4780215,41.5279139 C1.53668817,41.5279139 0,36.176 0,33.0219354 L4.91475269,33.0219354" id="Fill-4"></path>
                </g>
                <path d="M31.715871,36.4596129 L38.2383656,36.4596129 C40.8264086,36.4596129 42.3155269,35.3251612 42.3155269,32.7365161 C42.3155269,30.5049462 40.400086,29.6516989 38.4858495,29.6516989 L31.715871,29.6516989 L31.715871,36.4596129 Z M31.715871,25.3637849 L37.9553548,25.3637849 C40.0460215,25.3637849 41.7133763,24.5490752 41.7133763,22.5276559 C41.7133763,20.4351827 40.2236559,19.7975053 37.8126452,19.7975053 L31.715871,19.7975053 L31.715871,25.3637849 Z M26.612043,15.4030107 L38.9820215,15.4030107 C45.2215054,15.4030107 46.816,19.3025376 46.816,21.9261075 C46.816,25.5757419 44.7608602,26.6054193 43.6968602,27.1359139 C46.816,28.3064946 47.6325161,30.7867526 47.6325161,33.3049462 C47.6325161,35.3251612 46.7810753,37.2393978 45.4346667,38.5508817 C43.9810753,39.9677419 42.5979355,40.8547096 37.388129,40.8547096 L26.612043,40.8547096 L26.612043,15.4030107 Z" id="Fill-6" fill="#002E6D"></path>
                <polyline id="Fill-7" fill="#002E6D" points="64.1844301 15.3945806 60.1464086 15.3945806 52.0625376 40.8625376 57.1663656 40.8625376 62.1196559 24.1426236 67.1542366 40.8625376 72.2580645 40.8625376 64.1844301 15.3945806"></polyline>
                <polyline id="Fill-8" fill="#002E6D" points="64.1537204 51.9059784 60.107871 55.9993978 60.107871 40.9257634 64.1537204 40.9257634 64.1537204 51.9059784"></polyline>
            </g>
        </g>
    </g>
</svg>
